<?xml version="1.0" encoding="UTF-8" standalone="no"?>
<!-- Created with Inkscape (http://www.inkscape.org/) -->

<svg
   xmlns:dc="http://purl.org/dc/elements/1.1/"
   xmlns:cc="http://creativecommons.org/ns#"
   xmlns:rdf="http://www.w3.org/1999/02/22-rdf-syntax-ns#"
   xmlns:svg="http://www.w3.org/2000/svg"
   xmlns="http://www.w3.org/2000/svg"
   xmlns:sodipodi="http://sodipodi.sourceforge.net/DTD/sodipodi-0.dtd"
   xmlns:inkscape="http://www.inkscape.org/namespaces/inkscape"
   width="744.09448819"
   height="1052.3622047"
   id="svg2"
   version="1.1"
   inkscape:version="0.48.5 r10040"
   sodipodi:docname="New document 1">
  <defs
     id="defs4" />
  <sodipodi:namedview
     id="base"
     pagecolor="#ffffff"
     bordercolor="#666666"
     borderopacity="1.0"
     inkscape:pageopacity="0.0"
     inkscape:pageshadow="2"
     inkscape:zoom="0.35"
     inkscape:cx="375"
     inkscape:cy="520"
     inkscape:document-units="px"
     inkscape:current-layer="layer1"
     showgrid="false"
     inkscape:window-width="1326"
     inkscape:window-height="742"
     inkscape:window-x="40"
     inkscape:window-y="0"
     inkscape:window-maximized="1" />
  <metadata
     id="metadata7">
    <rdf:RDF>
      <cc:Work
         rdf:about="">
        <dc:format>image/svg+xml</dc:format>
        <dc:type
           rdf:resource="http://purl.org/dc/dcmitype/StillImage" />
        <dc:title></dc:title>
      </cc:Work>
    </rdf:RDF>
  </metadata>
  <g
     inkscape:label="Layer 1"
     inkscape:groupmode="layer"
     id="layer1">
    <g
       id="g3110"
       transform="matrix(2.5,0,0,2.5,-570.18989,-90.096057)">
      <g
         id="g3112">
        <path
           id="path3114"
           d="m 346.449,52.864 h -30.882 c -6.575,-3.777 -19.768,-9.5 -39.37,-9.5 -27.889,0 -39.178,10.901 -40.169,11.916 h -0.081 v 2.584 2.417 15.333 c 0,2.762 2.239,5 5,5 h 8.083 l 2.057,2.545 c 0.189,0.235 0.476,0.372 0.778,0.372 h 7.757 c 0.302,0 0.588,-0.137 0.777,-0.372 l 2.057,-2.545 h 83.993 c 2.762,0 5,-2.238 5,-5 v -17.75 c 0,-2.761 -2.238,-5 -5,-5 z"
           inkscape:connector-curvature="0"
           style="fill:#c88330" />
        <g
           id="g3116">
          <g
             id="g3118">
            <g
               id="g3120">
              <path
                 id="path3122"
                 d="m 251.546,63.735 -2.016,5.853 h -1.906 l -0.875,-2.733 c -0.061,-0.168 -0.12,-0.479 -0.132,-0.54 l -0.145,0.54 -0.898,2.733 h -1.907 c -0.66,-1.942 -1.319,-3.896 -1.967,-5.853 h 1.811 l 0.911,3.226 c 0.084,0.324 0.168,0.708 0.191,0.78 0.013,-0.061 0.097,-0.432 0.204,-0.78 l 0.947,-3.226 h 1.703 l 0.923,3.226 c 0.096,0.35 0.168,0.744 0.18,0.792 0.013,-0.048 0.108,-0.432 0.217,-0.792 l 0.936,-3.226 h 1.823 z"
                 inkscape:connector-curvature="0"
                 style="fill:#ffffff" />
              <path
                 id="path3124"
                 d="m 252.439,69.588 v -8.994 h 1.68 v 3.537 c 0,0.097 -0.013,0.252 -0.036,0.408 0.384,-0.552 0.972,-0.948 1.774,-0.948 1.211,0 2.123,0.948 2.123,2.52 v 3.479 h -1.69 v -3.382 c 0,-0.814 -0.517,-1.234 -1.08,-1.234 -0.517,0 -1.021,0.406 -1.091,1.247 v 3.369 l -1.68,-0.002 0,0 z"
                 inkscape:connector-curvature="0"
                 style="fill:#ffffff" />
              <path
                 id="path3126"
                 d="m 260.85,67.021 c 0.12,0.972 0.72,1.331 1.379,1.331 0.647,0 1.091,-0.3 1.379,-0.721 l 1.115,0.805 c -0.624,0.84 -1.259,1.271 -2.59,1.271 -1.715,0 -2.975,-1.26 -2.975,-3.059 0,-1.667 1.127,-3.046 2.926,-3.046 1.979,0 2.759,1.415 2.759,3.214 v 0.204 l -3.993,0.001 0,0 z m 0.048,-1.031 h 2.314 c -0.108,-0.672 -0.624,-1.02 -1.14,-1.02 -0.538,0.001 -1.006,0.337 -1.174,1.02 z"
                 inkscape:connector-curvature="0"
                 style="fill:#ffffff" />
              <path
                 id="path3128"
                 d="m 267.702,69.588 h -1.68 v -5.853 h 1.68 v 0.396 c 0,0.097 -0.013,0.24 -0.036,0.408 0.384,-0.552 0.972,-0.948 1.774,-0.948 1.211,0 2.123,0.948 2.123,2.52 v 3.479 h -1.69 v -3.382 c 0,-0.814 -0.517,-1.234 -1.08,-1.234 -0.504,0 -1.067,0.406 -1.091,1.188 v 3.426 l 0,0 z"
                 inkscape:connector-curvature="0"
                 style="fill:#ffffff" />
            </g>
          </g>
          <g
             id="g3130">
            <g
               id="g3132">
              <path
                 id="path3134"
                 d="m 311.161,65.714 c -0.301,-0.322 -0.563,-0.552 -1.044,-0.552 -0.779,0 -1.331,0.624 -1.331,1.487 0,0.898 0.552,1.463 1.331,1.463 0.479,0 0.84,-0.264 1.092,-0.623 l 1.26,0.959 c -0.6,0.815 -1.32,1.248 -2.352,1.248 -1.764,0 -3.011,-1.344 -3.011,-3.047 0,-1.703 1.247,-3.046 2.998,-3.046 0.924,0 1.655,0.396 2.22,1.03 l -1.163,1.081 z"
                 inkscape:connector-curvature="0"
                 style="fill:#ffffff" />
              <path
                 id="path3136"
                 d="m 313.646,69.588 v -8.994 h 1.703 v 8.994 h -1.703 z"
                 inkscape:connector-curvature="0"
                 style="fill:#ffffff" />
              <path
                 id="path3138"
                 d="m 317.822,60.82 c 0.601,0 1.104,0.504 1.104,1.104 0,0.601 -0.504,1.104 -1.104,1.104 -0.6,0 -1.104,-0.504 -1.104,-1.104 0,-0.6 0.505,-1.104 1.104,-1.104 z m -0.875,8.768 v -5.853 h 1.716 v 5.853 h -1.716 z"
                 inkscape:connector-curvature="0"
                 style="fill:#ffffff" />
              <path
                 id="path3140"
                 d="m 324.109,65.714 c -0.301,-0.322 -0.563,-0.552 -1.044,-0.552 -0.779,0 -1.331,0.624 -1.331,1.487 0,0.898 0.552,1.463 1.331,1.463 0.479,0 0.839,-0.264 1.091,-0.623 l 1.261,0.959 c -0.601,0.815 -1.319,1.248 -2.352,1.248 -1.763,0 -3.011,-1.344 -3.011,-3.047 0,-1.703 1.248,-3.046 2.998,-3.046 0.924,0 1.656,0.396 2.219,1.03 l -1.162,1.081 z"
                 inkscape:connector-curvature="0"
                 style="fill:#ffffff" />
              <path
                 id="path3142"
                 d="m 330.445,69.588 -1.644,-2.459 -0.504,0.576 v 1.883 h -1.703 v -8.994 h 1.703 v 5.12 l 1.631,-1.99 h 1.871 l -2.003,2.291 2.471,3.573 h -1.822 z"
                 inkscape:connector-curvature="0"
                 style="fill:#ffffff" />
              <path
                 id="path3144"
                 d="m 334.298,67.021 c 0.12,0.972 0.72,1.331 1.38,1.331 0.647,0 1.091,-0.3 1.379,-0.721 l 1.115,0.805 c -0.623,0.84 -1.26,1.271 -2.59,1.271 -1.716,0 -2.976,-1.26 -2.976,-3.059 0,-1.667 1.127,-3.046 2.927,-3.046 1.979,0 2.759,1.415 2.759,3.214 v 0.204 l -3.994,0.001 0,0 z m 0.048,-1.031 h 2.314 c -0.107,-0.672 -0.623,-1.02 -1.14,-1.02 -0.539,0.001 -1.006,0.337 -1.174,1.02 z"
                 inkscape:connector-curvature="0"
                 style="fill:#ffffff" />
              <path
                 id="path3146"
                 d="M 343.429,69.588 V 68.82 c -0.468,0.552 -1.092,0.888 -1.775,0.888 -1.644,0 -2.529,-1.486 -2.529,-3.069 0,-1.561 0.924,-3.034 2.543,-3.034 0.646,0 1.246,0.239 1.703,0.72 v -3.729 h 1.679 v 8.994 l -1.621,-0.002 0,0 z m -0.036,-2.939 c 0,-0.899 -0.516,-1.547 -1.295,-1.547 -0.876,0 -1.308,0.694 -1.308,1.559 0,0.853 0.443,1.561 1.308,1.561 0.767,-10e-4 1.295,-0.769 1.295,-1.573 z"
                 inkscape:connector-curvature="0"
                 style="fill:#ffffff" />
            </g>
          </g>
          <path
             id="path3148"
             d="m 300.18,59.106 c -0.303,-0.224 -0.706,-0.255 -1.042,-0.085 -1.264,0.642 -5.118,2.081 -6.233,0.351 -2.139,-3.319 -7.765,-3.233 -8.005,-3.225 -0.02,0 -0.035,0.01 -0.055,0.012 -0.073,0.006 -0.141,0.026 -0.21,0.047 -0.056,0.019 -0.111,0.029 -0.162,0.058 -0.061,0.029 -0.11,0.072 -0.164,0.114 -0.048,0.039 -0.096,0.072 -0.135,0.117 -0.041,0.048 -0.069,0.104 -0.103,0.158 -0.033,0.059 -0.067,0.115 -0.09,0.182 -0.007,0.019 -0.021,0.031 -0.024,0.052 l -4.999,18.488 c -0.145,0.533 0.172,1.082 0.704,1.228 0.088,0.022 0.176,0.033 0.262,0.033 0.441,0 0.845,-0.294 0.965,-0.738 l 2.313,-8.558 c 0.082,0.021 0.161,0.052 0.25,0.054 1.302,-0.037 5,0.323 6.276,2.309 0.845,1.312 2.204,1.732 3.606,1.732 2.459,0 5.048,-1.297 5.216,-1.383 0.284,-0.146 0.482,-0.416 0.533,-0.732 l 1.493,-9.246 c 0.062,-0.373 -0.092,-0.747 -0.396,-0.968 z"
             inkscape:connector-curvature="0"
             style="fill:#009640" />
        </g>
      </g>
    </g>
    <g
       id="g3349"
       transform="matrix(2.5,0,0,2.5,-436.52343,343.14355)">
      <g
         id="g3351">
        <path
           id="path3353"
           d="m 388.58,107.911 h -27 -2.5 -25.5 -1.5 -29.382 c -6.575,-3.777 -19.768,-9.5 -39.367,-9.5 -27.89,0 -39.18,10.901 -40.17,11.916 h -0.08 v 2.584 2.417 15.333 c 0,2.762 2.237,5 5,5 h 8.083 l 2.056,2.545 c 0.19,0.235 0.476,0.372 0.778,0.372 h 7.757 c 0.303,0 0.588,-0.137 0.778,-0.372 l 2.056,-2.545 h 82.491 1.5 25.5 2.5 27 c 2.762,0 5,-2.238 5,-5 v -17.75 c 0,-2.762 -2.238,-5 -5,-5 z"
           inkscape:connector-curvature="0"
           style="fill:#c88330" />
        <g
           id="g3355">
          <rect
             id="rect3357"
             height="14.778"
             width="50"
             y="114.271"
             x="265.64499"
             style="fill:#ffffff" />
          <g
             id="g3359">
            <g
               id="g3361">
              <path
                 id="path3363"
                 d="m 239.882,118.782 -2.015,5.854 h -1.907 l -0.875,-2.734 c -0.061,-0.168 -0.12,-0.479 -0.132,-0.54 l -0.145,0.54 -0.898,2.734 h -1.907 c -0.66,-1.943 -1.319,-3.897 -1.967,-5.854 h 1.811 l 0.911,3.226 c 0.084,0.324 0.168,0.708 0.192,0.78 0.012,-0.061 0.096,-0.432 0.203,-0.78 l 0.947,-3.226 h 1.703 l 0.923,3.226 c 0.097,0.35 0.168,0.744 0.181,0.792 0.012,-0.048 0.107,-0.432 0.216,-0.792 l 0.936,-3.226 h 1.823 z"
                 inkscape:connector-curvature="0"
                 style="fill:#ffffff" />
              <path
                 id="path3365"
                 d="m 240.775,124.635 v -8.995 h 1.68 v 3.538 c 0,0.096 -0.013,0.252 -0.036,0.407 0.384,-0.552 0.972,-0.947 1.774,-0.947 1.211,0 2.123,0.947 2.123,2.519 v 3.479 h -1.69 v -3.383 c 0,-0.814 -0.517,-1.234 -1.08,-1.234 -0.517,0 -1.021,0.406 -1.091,1.247 v 3.37 l -1.68,-10e-4 0,0 z"
                 inkscape:connector-curvature="0"
                 style="fill:#ffffff" />
              <path
                 id="path3367"
                 d="m 249.186,122.068 c 0.12,0.972 0.72,1.331 1.379,1.331 0.647,0 1.091,-0.3 1.379,-0.72 l 1.115,0.804 c -0.624,0.84 -1.259,1.271 -2.59,1.271 -1.715,0 -2.975,-1.26 -2.975,-3.059 0,-1.667 1.127,-3.046 2.926,-3.046 1.979,0 2.759,1.415 2.759,3.214 v 0.204 l -3.993,0.001 0,0 z m 0.048,-1.031 h 2.314 c -0.108,-0.672 -0.624,-1.02 -1.139,-1.02 -0.539,0.001 -1.007,0.337 -1.175,1.02 z"
                 inkscape:connector-curvature="0"
                 style="fill:#ffffff" />
              <path
                 id="path3369"
                 d="m 256.038,124.635 h -1.68 v -5.854 h 1.68 v 0.396 c 0,0.096 -0.013,0.239 -0.036,0.407 0.384,-0.552 0.972,-0.947 1.774,-0.947 1.211,0 2.123,0.947 2.123,2.519 v 3.479 h -1.69 v -3.383 c 0,-0.814 -0.517,-1.234 -1.08,-1.234 -0.504,0 -1.067,0.406 -1.091,1.188 v 3.429 l 0,0 z"
                 inkscape:connector-curvature="0"
                 style="fill:#ffffff" />
            </g>
          </g>
          <g
             id="g3371">
            <g
               id="g3373">
              <path
                 id="path3375"
                 d="m 325.533,124.635 -1.645,-2.46 -0.503,0.576 v 1.884 h -1.703 v -8.995 h 1.703 v 5.121 l 1.631,-1.991 h 1.871 l -2.004,2.291 2.471,3.574 h -1.821 z"
                 inkscape:connector-curvature="0"
                 style="fill:#ffffff" />
              <path
                 id="path3377"
                 d="m 329.387,122.068 c 0.119,0.972 0.719,1.331 1.379,1.331 0.647,0 1.092,-0.3 1.379,-0.72 l 1.115,0.804 c -0.623,0.84 -1.259,1.271 -2.59,1.271 -1.715,0 -2.976,-1.26 -2.976,-3.059 0,-1.667 1.127,-3.046 2.927,-3.046 1.979,0 2.76,1.415 2.76,3.214 v 0.204 l -3.994,0.001 0,0 z m 0.048,-1.031 h 2.314 c -0.108,-0.672 -0.624,-1.02 -1.141,-1.02 -0.538,0.001 -1.005,0.337 -1.173,1.02 z"
                 inkscape:connector-curvature="0"
                 style="fill:#ffffff" />
              <path
                 id="path3379"
                 d="m 336.094,123.987 -2.182,-5.205 h 1.762 l 1.128,2.734 c 0.097,0.239 0.181,0.563 0.192,0.6 0,-0.024 0.106,-0.348 0.215,-0.6 l 1.176,-2.734 h 1.775 l -4.042,9.127 h -1.752 l 1.728,-3.922 z"
                 inkscape:connector-curvature="0"
                 style="fill:#ffffff" />
              <path
                 id="path3381"
                 d="m 344.555,127.633 v -8.851 h 1.68 v 0.588 c 0.455,-0.479 1.056,-0.72 1.703,-0.72 1.619,0 2.542,1.475 2.542,3.034 0,1.583 -0.888,3.069 -2.529,3.069 -0.685,0 -1.32,-0.336 -1.775,-0.888 v 3.766 l -1.621,0.002 0,0 z m 4.258,-5.925 c 0,-0.862 -0.432,-1.559 -1.308,-1.559 -0.779,0 -1.295,0.646 -1.295,1.547 0,0.804 0.526,1.571 1.295,1.571 0.864,0.001 1.308,-0.707 1.308,-1.559 z"
                 inkscape:connector-curvature="0"
                 style="fill:#ffffff" />
              <path
                 id="path3383"
                 d="m 353.338,124.635 h -1.68 v -5.854 h 1.68 v 0.396 c 0,0.132 -0.023,0.348 -0.062,0.575 0.336,-0.636 0.863,-1.115 1.632,-1.115 v 1.644 c -0.875,0 -1.57,0.504 -1.57,1.463 v 2.891 z"
                 inkscape:connector-curvature="0"
                 style="fill:#ffffff" />
              <path
                 id="path3385"
                 d="m 357.441,122.068 c 0.12,0.972 0.721,1.331 1.379,1.331 0.648,0 1.093,-0.3 1.381,-0.72 l 1.114,0.804 c -0.624,0.84 -1.259,1.271 -2.591,1.271 -1.715,0 -2.975,-1.26 -2.975,-3.059 0,-1.667 1.128,-3.046 2.927,-3.046 1.979,0 2.759,1.415 2.759,3.214 v 0.204 l -3.994,0.001 0,0 z m 0.049,-1.031 h 2.314 c -0.108,-0.672 -0.624,-1.02 -1.14,-1.02 -0.539,0.001 -1.006,0.337 -1.174,1.02 z"
                 inkscape:connector-curvature="0"
                 style="fill:#ffffff" />
              <path
                 id="path3387"
                 d="m 363.202,122.668 c 0.406,0.469 1.056,0.659 1.618,0.659 0.359,0 0.624,-0.144 0.624,-0.359 0,-0.3 -0.301,-0.442 -0.792,-0.588 -0.91,-0.264 -2.039,-0.768 -2.039,-1.955 0,-1.127 1.092,-1.763 2.075,-1.763 0.888,0 1.512,0.3 2.039,0.853 l -0.936,1.008 c -0.252,-0.276 -0.722,-0.528 -1.068,-0.528 -0.312,0 -0.539,0.146 -0.539,0.372 0,0.288 0.336,0.432 0.863,0.588 0.888,0.264 2.027,0.815 2.027,1.932 0,1.104 -0.947,1.87 -2.269,1.87 -1.055,0 -1.918,-0.3 -2.555,-0.982 l 0.952,-1.107 z"
                 inkscape:connector-curvature="0"
                 style="fill:#ffffff" />
              <path
                 id="path3389"
                 d="m 368.842,122.668 c 0.408,0.469 1.055,0.659 1.619,0.659 0.358,0 0.623,-0.144 0.623,-0.359 0,-0.3 -0.299,-0.442 -0.791,-0.588 -0.912,-0.264 -2.039,-0.768 -2.039,-1.955 0,-1.127 1.092,-1.763 2.074,-1.763 0.889,0 1.512,0.3 2.039,0.853 l -0.937,1.008 c -0.252,-0.276 -0.719,-0.528 -1.066,-0.528 -0.313,0 -0.539,0.146 -0.539,0.372 0,0.288 0.335,0.432 0.862,0.588 0.889,0.264 2.026,0.815 2.026,1.932 0,1.104 -0.947,1.87 -2.267,1.87 -1.057,0 -1.92,-0.3 -2.555,-0.982 l 0.951,-1.107 z"
                 inkscape:connector-curvature="0"
                 style="fill:#ffffff" />
              <path
                 id="path3391"
                 d="m 375.225,122.068 c 0.12,0.972 0.72,1.331 1.379,1.331 0.648,0 1.092,-0.3 1.38,-0.72 l 1.115,0.804 c -0.624,0.84 -1.259,1.271 -2.591,1.271 -1.715,0 -2.975,-1.26 -2.975,-3.059 0,-1.667 1.128,-3.046 2.927,-3.046 1.979,0 2.759,1.415 2.759,3.214 v 0.204 l -3.994,0.001 0,0 z m 0.048,-1.031 h 2.314 c -0.108,-0.672 -0.624,-1.02 -1.141,-1.02 -0.538,0.001 -1.005,0.337 -1.173,1.02 z"
                 inkscape:connector-curvature="0"
                 style="fill:#ffffff" />
              <path
                 id="path3393"
                 d="m 384.355,124.635 v -0.769 c -0.468,0.552 -1.092,0.888 -1.774,0.888 -1.644,0 -2.53,-1.486 -2.53,-3.069 0,-1.561 0.923,-3.034 2.542,-3.034 0.648,0 1.248,0.239 1.703,0.72 v -3.729 h 1.68 v 8.995 l -1.621,-0.002 0,0 z m -0.036,-2.939 c 0,-0.899 -0.516,-1.547 -1.296,-1.547 -0.875,0 -1.307,0.695 -1.307,1.559 0,0.853 0.443,1.561 1.307,1.561 0.768,-0.001 1.296,-0.769 1.296,-1.573 z"
                 inkscape:connector-curvature="0"
                 style="fill:#ffffff" />
            </g>
          </g>
        </g>
      </g>
    </g>
    <g
       id="g3541"
       transform="matrix(2.5,0,0,2.5,-580.33264,-542.17273)">
      <g
         id="g3543">
        <path
           id="path3545"
           d="m 266.393,343.668 h 83.998 c 2.762,0 5,-2.238 5,-5 v -12.166 c 0,-2.478 -1.805,-4.519 -4.168,-4.916 h -66.83 l -2.051,2.538 c -0.189,0.234 -0.476,0.371 -0.777,0.371 h -7.758 c -0.302,0 -0.588,-0.137 -0.777,-0.371 l -2.051,-2.538 h -8.089 c -2.761,0 -5,-2.238 -5,-5 v -12.168 c 0,-2.763 2.239,-5 5,-5 h 5.984 2.1 0.005 l 2.051,2.538 c 0.189,0.236 0.477,0.373 0.777,0.373 h 7.758 c 0.303,0 0.588,-0.137 0.777,-0.373 l 2.051,-2.538 h 0.005 65.993 c 2.762,0 5,-2.238 5,-5.001 v -12.166 c 0,-2.762 -2.238,-5 -5,-5 h -83.993 l -2.056,2.545 c -0.189,0.234 -0.476,0.371 -0.777,0.371 h -7.758 c -0.302,0 -0.588,-0.137 -0.776,-0.371 l -2.057,-2.545 h -8.084 c -2.718,0 -4.919,2.172 -4.987,4.875 h -0.013 v 0.125 12.166 32.085 9.438 2.729 c 0,2.763 2.239,5 5,5 h 8.089"
           inkscape:connector-curvature="0"
           style="fill:#f2af31" />
        <g
           id="g3547">
          <g
             id="g3549">
            <g
               id="g3551">
              <path
                 id="path3553"
                 d="m 258.155,287.448 v 4.365 h -1.702 v -4.365 h -0.841 v -1.488 h 0.841 v -1.055 c 0,-1.416 0.994,-2.23 2.158,-2.23 0.408,0 0.769,0.07 1.067,0.203 l -0.552,1.429 c -0.108,-0.062 -0.24,-0.097 -0.372,-0.097 -0.384,0 -0.601,0.299 -0.601,0.814 v 0.936 h 1.235 v 1.488 h -1.233 z"
                 inkscape:connector-curvature="0"
                 style="fill:#ffffff" />
              <path
                 id="path3555"
                 d="m 260.208,288.874 c 0,-1.737 1.343,-3.045 3.059,-3.045 1.715,0 3.059,1.308 3.059,3.045 0,1.74 -1.344,3.047 -3.059,3.047 -1.716,0 -3.059,-1.307 -3.059,-3.047 z m 4.474,0 c 0,-0.887 -0.563,-1.547 -1.415,-1.547 -0.864,0 -1.427,0.66 -1.427,1.547 0,0.9 0.587,1.562 1.427,1.562 0.851,-10e-4 1.415,-0.662 1.415,-1.562 z"
                 inkscape:connector-curvature="0"
                 style="fill:#ffffff" />
              <path
                 id="path3557"
                 d="m 269.183,291.813 h -1.679 v -5.854 h 1.679 v 0.396 c 0,0.131 -0.023,0.348 -0.06,0.576 0.336,-0.638 0.862,-1.117 1.631,-1.117 v 1.645 c -0.875,0 -1.571,0.504 -1.571,1.463 v 2.891 z"
                 inkscape:connector-curvature="0"
                 style="fill:#ffffff" />
              <path
                 id="path3559"
                 d="m 273.287,289.247 c 0.119,0.972 0.72,1.33 1.379,1.33 0.646,0 1.091,-0.299 1.379,-0.719 l 1.115,0.803 c -0.624,0.84 -1.26,1.271 -2.591,1.271 -1.715,0 -2.975,-1.261 -2.975,-3.06 0,-1.666 1.127,-3.045 2.926,-3.045 1.979,0 2.759,1.414 2.759,3.213 v 0.205 l -3.992,0.002 0,0 z m 0.048,-1.031 h 2.313 c -0.107,-0.672 -0.624,-1.02 -1.139,-1.02 -0.538,0 -1.006,0.336 -1.174,1.02 z"
                 inkscape:connector-curvature="0"
                 style="fill:#ffffff" />
              <path
                 id="path3561"
                 d="m 279.947,291.813 -2.135,-5.854 h 1.823 l 1.067,3.047 c 0.119,0.336 0.191,0.757 0.203,0.841 0.013,-0.062 0.084,-0.492 0.204,-0.841 l 1.067,-3.047 H 284 l -2.136,5.854 h -1.917 z"
                 inkscape:connector-curvature="0"
                 style="fill:#ffffff" />
              <path
                 id="path3563"
                 d="m 286.223,289.247 c 0.12,0.972 0.72,1.33 1.379,1.33 0.648,0 1.091,-0.299 1.379,-0.719 l 1.115,0.803 c -0.624,0.84 -1.259,1.271 -2.59,1.271 -1.715,0 -2.976,-1.261 -2.976,-3.06 0,-1.666 1.128,-3.045 2.927,-3.045 1.979,0 2.759,1.414 2.759,3.213 v 0.205 l -3.993,0.002 0,0 z m 0.048,-1.031 h 2.314 c -0.108,-0.672 -0.624,-1.02 -1.14,-1.02 -0.539,0 -1.006,0.336 -1.174,1.02 z"
                 inkscape:connector-curvature="0"
                 style="fill:#ffffff" />
              <path
                 id="path3565"
                 d="m 293.075,291.813 h -1.68 v -5.854 h 1.68 v 0.396 c 0,0.131 -0.024,0.348 -0.061,0.576 0.336,-0.638 0.863,-1.117 1.631,-1.117 v 1.645 c -0.875,0 -1.57,0.504 -1.57,1.463 v 2.891 z"
                 inkscape:connector-curvature="0"
                 style="fill:#ffffff" />
            </g>
          </g>
          <g
             id="g3567">
            <polygon
               id="polygon3569"
               points="340.312,330.709 343.316,326.475 346.357,330.695 "
               style="fill:#ffffff" />
            <path
               id="path3571"
               d="m 346.806,330.541 -3.041,-4.221 c -0.085,-0.117 -0.258,-0.189 -0.448,-0.189 -0.001,0 -0.001,0 -0.001,0 -0.19,0 -0.363,0.073 -0.447,0.192 l -3.006,4.232 c -0.074,0.105 -0.065,0.233 0.025,0.334 0.092,0.102 0.252,0.163 0.424,0.163 10e-4,0 0.002,0 0.002,0 l 2.521,-0.005 v 1.254 c 0,2.832 -3.34,5.139 -7.443,5.139 h -16.353 c -0.276,0 -0.5,0.152 -0.5,0.344 0,0.19 0.224,0.347 0.5,0.347 h 16.353 c 4.655,0 8.443,-2.615 8.443,-5.828 v -1.256 l 2.522,-0.007 c 0.175,0 0.334,-0.063 0.425,-0.164 0.092,-0.102 0.1,-0.228 0.024,-0.335 z m -2.971,-0.186 v -0.367 c 0,-0.189 -0.226,-0.345 -0.5,-0.345 -0.277,0 -0.5,0.154 -0.5,0.345 v 0.368 l -1.722,0.004 2.205,-3.104 2.232,3.096 -1.715,0.003 z"
               inkscape:connector-curvature="0"
               style="fill:#ffffff" />
          </g>
        </g>
      </g>
    </g>
    <g
       id="g3848"
       transform="matrix(2.5,0,0,2.5,-529.36584,-557.4965)">
      <path
         id="path3850"
         d="m 398.897,262.102 h 38.12 27.873 17 c 2.762,0 5,-2.238 5,-5 v -12.167 c 0,-2.762 -2.238,-5 -5,-5 h -17 -27.873 -56.12 l -2.057,2.545 c -0.188,0.235 -0.476,0.372 -0.776,0.372 h -7.758 c -0.303,0 -0.589,-0.137 -0.777,-0.372 l -2.056,-2.545 h -8.084 c -2.719,0 -4.919,2.172 -4.987,4.875 h -0.013 v 0.125 12.167 31.961 0.122 0.003 9.436 2.729 0.003 32.083 9.438 2.729 c 0,2.762 2.238,5 5,5 h 8.089 l 2.051,2.539 c 0.188,0.235 0.476,0.372 0.777,0.372 h 7.757 c 0.303,0 0.588,-0.137 0.777,-0.372 l 2.052,-2.539 h 56.125 27.873 17 c 2.762,0 5,-2.238 5,-5 v -12.167 c 0,-2.477 -1.805,-4.518 -4.168,-4.916 h -17 -28.705 -38.125 l -2.052,2.539 c -0.188,0.235 -0.476,0.372 -0.776,0.372 h -7.758 c -0.303,0 -0.589,-0.137 -0.777,-0.372 l -2.051,-2.539 h -8.089 c -2.762,0 -5,-2.238 -5,-5 v -12.167 c 0,-2.762 2.238,-5 5,-5 h 5.983 2.101 0.005 l 2.051,2.539 c 0.188,0.235 0.476,0.372 0.777,0.372 h 7.758 c 0.302,0 0.588,-0.137 0.776,-0.372 l 2.052,-2.539 h 0.005 38.12 27.873 17 c 2.762,0 5,-2.238 5,-5 v -0.003 -12.164 -0.003 c 0,-0.329 -0.036,-0.647 -0.097,-0.959 -0.021,-0.103 -0.058,-0.198 -0.083,-0.298 -0.054,-0.202 -0.107,-0.402 -0.186,-0.594 -0.049,-0.123 -0.112,-0.236 -0.17,-0.354 -0.077,-0.153 -0.153,-0.307 -0.244,-0.45 -0.081,-0.128 -0.173,-0.246 -0.265,-0.367 -0.088,-0.114 -0.177,-0.228 -0.274,-0.332 -0.115,-0.127 -0.236,-0.244 -0.365,-0.357 -0.09,-0.08 -0.182,-0.156 -0.275,-0.229 -0.151,-0.117 -0.305,-0.226 -0.469,-0.324 -0.084,-0.051 -0.172,-0.094 -0.259,-0.141 -0.186,-0.098 -0.372,-0.188 -0.57,-0.263 -0.071,-0.027 -0.146,-0.045 -0.219,-0.067 -0.222,-0.07 -0.442,-0.137 -0.676,-0.177 -0.006,-0.002 -0.012,-0.004 -0.018,-0.005 h -0.027 c -0.264,-0.043 -0.529,-0.081 -0.805,-0.081 h -17 -27.873 -38.12 -0.005 l -2.052,2.539 c -0.188,0.235 -0.476,0.372 -0.776,0.372 h -7.758 c -0.303,0 -0.589,-0.137 -0.777,-0.372 l -2.051,-2.539 h -4.581 l -0.065,0.081 h -3.441 c -2.762,0 -5,-2.238 -5,-5 v -12.167 c 0,-2.762 2.238,-5 5,-5 h 5.983 2.101 0.005 l 2.051,2.539 c 0.189,0.235 0.476,0.372 0.777,0.372 h 7.758 c 0.302,0 0.588,-0.137 0.777,-0.372 l 2.051,-2.539 h 0.005 z"
         inkscape:connector-curvature="0"
         style="fill:#f2af31" />
      <g
         id="g3852">
        <g
           id="g3854">
          <g
             id="g3856">
            <path
               id="path3858"
               d="m 376.576,245.73 c 0.6,0 1.104,0.504 1.104,1.104 0,0.6 -0.505,1.104 -1.104,1.104 -0.599,0 -1.104,-0.504 -1.104,-1.104 0,-0.6 0.504,-1.104 1.104,-1.104 z m -0.876,8.768 v -5.853 h 1.715 v 5.853 H 375.7 z"
               inkscape:connector-curvature="0"
               style="fill:#ffffff" />
            <path
               id="path3860"
               d="m 381.063,250.133 v 4.365 h -1.703 v -4.365 h -0.84 v -1.486 h 0.84 v -1.057 c 0,-1.414 0.995,-2.23 2.159,-2.23 0.407,0 0.768,0.072 1.066,0.203 l -0.552,1.429 c -0.108,-0.06 -0.24,-0.097 -0.372,-0.097 -0.384,0 -0.6,0.301 -0.6,0.816 v 0.936 h 1.234 v 1.486 h -1.232 z"
               inkscape:connector-curvature="0"
               style="fill:#ffffff" />
          </g>
        </g>
        <g
           id="g3862">
          <g
             id="g3864">
            <path
               id="path3866"
               d="m 376.971,296.932 c 0.119,0.973 0.72,1.332 1.379,1.332 0.646,0 1.091,-0.301 1.379,-0.721 l 1.115,0.805 c -0.624,0.84 -1.26,1.271 -2.591,1.271 -1.715,0 -2.975,-1.26 -2.975,-3.059 0,-1.668 1.127,-3.047 2.926,-3.047 1.979,0 2.759,1.416 2.759,3.215 v 0.203 l -3.992,0.001 0,0 z m 0.049,-1.032 h 2.313 c -0.107,-0.672 -0.624,-1.02 -1.139,-1.02 -0.539,10e-4 -1.006,0.337 -1.174,1.02 z"
               inkscape:connector-curvature="0"
               style="fill:#ffffff" />
            <path
               id="path3868"
               d="m 382.144,299.497 v -8.993 h 1.703 v 8.993 h -1.703 z"
               inkscape:connector-curvature="0"
               style="fill:#ffffff" />
            <path
               id="path3870"
               d="m 385.972,297.531 c 0.407,0.47 1.055,0.66 1.618,0.66 0.359,0 0.624,-0.145 0.624,-0.358 0,-0.302 -0.3,-0.443 -0.792,-0.588 -0.911,-0.265 -2.039,-0.769 -2.039,-1.955 0,-1.127 1.092,-1.765 2.075,-1.765 0.889,0 1.512,0.302 2.039,0.853 l -0.936,1.008 c -0.252,-0.275 -0.721,-0.527 -1.067,-0.527 -0.312,0 -0.54,0.146 -0.54,0.371 0,0.289 0.335,0.433 0.863,0.588 0.888,0.265 2.027,0.816 2.027,1.933 0,1.104 -0.947,1.87 -2.268,1.87 -1.056,0 -1.919,-0.301 -2.555,-0.983 l 0.951,-1.107 z"
               inkscape:connector-curvature="0"
               style="fill:#ffffff" />
            <path
               id="path3872"
               d="m 392.355,296.932 c 0.12,0.973 0.72,1.332 1.379,1.332 0.646,0 1.091,-0.301 1.379,-0.721 l 1.115,0.805 c -0.624,0.84 -1.259,1.271 -2.59,1.271 -1.716,0 -2.976,-1.26 -2.976,-3.059 0,-1.668 1.127,-3.047 2.926,-3.047 1.979,0 2.76,1.416 2.76,3.215 v 0.203 l -3.993,0.001 0,0 z m 0.048,-1.032 h 2.313 c -0.107,-0.672 -0.623,-1.02 -1.139,-1.02 -0.538,10e-4 -1.006,0.337 -1.174,1.02 z"
               inkscape:connector-curvature="0"
               style="fill:#ffffff" />
          </g>
        </g>
        <g
           id="g3874">
          <g
             id="g3876">
            <path
               id="path3878"
               d="m 450.096,248.646 v -2.088 h 1.68 v 2.088 h 0.827 v 1.56 h -0.827 v 4.293 h -1.68 v -4.293 h -0.815 v -1.56 h 0.815 z"
               inkscape:connector-curvature="0"
               style="fill:#ffffff" />
            <path
               id="path3880"
               d="m 453.779,254.498 v -8.994 h 1.68 v 3.537 c 0,0.096 -0.012,0.252 -0.035,0.408 0.384,-0.552 0.972,-0.947 1.773,-0.947 1.212,0 2.123,0.947 2.123,2.518 v 3.479 h -1.689 v -3.381 c 0,-0.816 -0.518,-1.236 -1.079,-1.236 -0.517,0 -1.021,0.408 -1.093,1.248 v 3.369 l -1.68,-0.001 0,0 z"
               inkscape:connector-curvature="0"
               style="fill:#ffffff" />
            <path
               id="path3882"
               d="m 462.191,251.932 c 0.119,0.973 0.719,1.332 1.379,1.332 0.647,0 1.092,-0.301 1.379,-0.721 l 1.115,0.805 c -0.623,0.84 -1.259,1.271 -2.59,1.271 -1.715,0 -2.976,-1.261 -2.976,-3.06 0,-1.668 1.128,-3.047 2.927,-3.047 1.979,0 2.76,1.416 2.76,3.215 v 0.203 l -3.994,0.002 0,0 z m 0.048,-1.032 h 2.314 c -0.108,-0.672 -0.624,-1.02 -1.141,-1.02 -0.537,0.001 -1.005,0.337 -1.173,1.02 z"
               inkscape:connector-curvature="0"
               style="fill:#ffffff" />
            <path
               id="path3884"
               d="m 469.044,254.498 h -1.681 v -5.853 h 1.681 v 0.396 c 0,0.096 -0.013,0.239 -0.036,0.408 0.384,-0.552 0.972,-0.947 1.773,-0.947 1.212,0 2.123,0.947 2.123,2.518 v 3.479 h -1.689 v -3.381 c 0,-0.816 -0.518,-1.236 -1.079,-1.236 -0.504,0 -1.068,0.408 -1.093,1.188 l 10e-4,3.428 0,0 z"
               inkscape:connector-curvature="0"
               style="fill:#ffffff" />
          </g>
        </g>
        <rect
           id="rect3886"
           height="14.779"
           width="57.215"
           y="243.645"
           x="387.55301"
           style="fill:#ffffff" />
      </g>
    </g>
    <g
       id="g4012"
       transform="matrix(2.5,0,0,2.5,-577.4755,310.14833)">
      <g
         id="g4014">
        <path
           id="path4016"
           d="m 351.223,62.9 h -66.83 l -2.051,2.539 c -0.189,0.234 -0.476,0.372 -0.777,0.372 h -7.758 c -0.302,0 -0.588,-0.138 -0.777,-0.372 L 270.979,62.9 h -8.089 c -2.761,0 -5,-2.238 -5,-5 V 45.733 c 0,-2.762 2.239,-5 5,-5 h 5.984 2.1 0.005 l 2.051,2.539 c 0.189,0.234 0.477,0.372 0.777,0.372 h 7.758 c 0.303,0 0.588,-0.138 0.777,-0.372 l 2.051,-2.539 h 0.005 65.993 c 2.762,0 5,-2.238 5,-5 V 23.566 c 0,-2.762 -2.238,-5 -5,-5 h -83.993 l -2.056,2.545 c -0.189,0.235 -0.476,0.372 -0.777,0.372 h -7.758 c -0.302,0 -0.588,-0.137 -0.776,-0.372 l -2.057,-2.545 h -8.084 c -2.718,0 -4.919,2.172 -4.987,4.875 h -0.013 v 0.125 12.167 32.083 9.438 2.729 c 0,2.762 2.239,5 5,5 h 8.089 l 2.052,2.539 c 0.188,0.234 0.476,0.372 0.776,0.372 h 7.757 c 0.304,0 0.588,-0.138 0.778,-0.372 l 2.051,-2.539 h 83.998 c 2.762,0 5,-2.238 5,-5 V 67.816 c 0,-2.476 -1.805,-4.517 -4.168,-4.916 z"
           inkscape:connector-curvature="0"
           style="fill:#f2af31" />
        <g
           id="g4018">
          <g
             id="g4020">
            <g
               id="g4022">
              <path
                 id="path4024"
                 d="m 257.819,33.129 h -1.679 v -5.853 h 1.679 v 0.396 c 0,0.133 -0.023,0.349 -0.06,0.576 0.336,-0.636 0.863,-1.116 1.631,-1.116 v 1.645 c -0.875,0 -1.571,0.504 -1.571,1.463 v 2.889 z"
                 inkscape:connector-curvature="0"
                 style="fill:#ffffff" />
              <path
                 id="path4026"
                 d="m 261.923,30.563 c 0.12,0.972 0.72,1.331 1.379,1.331 0.648,0 1.091,-0.3 1.379,-0.721 l 1.115,0.805 c -0.624,0.84 -1.259,1.271 -2.59,1.271 -1.715,0 -2.976,-1.26 -2.976,-3.059 0,-1.667 1.127,-3.046 2.926,-3.046 1.979,0 2.76,1.415 2.76,3.214 v 0.204 l -3.993,10e-4 0,0 z m 0.048,-1.032 h 2.314 c -0.108,-0.672 -0.624,-1.02 -1.14,-1.02 -0.539,0.001 -1.006,0.337 -1.174,1.02 z"
                 inkscape:connector-curvature="0"
                 style="fill:#ffffff" />
              <path
                 id="path4028"
                 d="m 267.096,36.127 v -8.851 h 1.679 v 0.588 c 0.456,-0.48 1.056,-0.72 1.703,-0.72 1.619,0 2.542,1.475 2.542,3.034 0,1.583 -0.888,3.069 -2.531,3.069 -0.684,0 -1.318,-0.336 -1.774,-0.888 v 3.766 l -1.619,0.002 0,0 z m 4.258,-5.925 c 0,-0.863 -0.432,-1.559 -1.308,-1.559 -0.779,0 -1.295,0.646 -1.295,1.547 0,0.804 0.526,1.571 1.295,1.571 0.864,0.001 1.308,-0.707 1.308,-1.559 z"
                 inkscape:connector-curvature="0"
                 style="fill:#ffffff" />
              <path
                 id="path4030"
                 d="m 275.531,30.563 c 0.12,0.972 0.721,1.331 1.38,1.331 0.646,0 1.091,-0.3 1.379,-0.721 l 1.114,0.805 c -0.624,0.84 -1.259,1.271 -2.59,1.271 -1.715,0 -2.975,-1.26 -2.975,-3.059 0,-1.667 1.127,-3.046 2.926,-3.046 1.979,0 2.759,1.415 2.759,3.214 v 0.204 l -3.993,10e-4 0,0 z m 0.048,-1.032 h 2.313 c -0.107,-0.672 -0.624,-1.02 -1.139,-1.02 -0.538,0.001 -1.006,0.337 -1.174,1.02 z"
                 inkscape:connector-curvature="0"
                 style="fill:#ffffff" />
              <path
                 id="path4032"
                 d="m 286.053,33.129 c -0.72,0 -1.211,-0.384 -1.475,-0.994 -0.336,0.563 -1.043,1.114 -2.087,1.114 -1.296,0 -1.955,-0.84 -1.955,-1.715 0,-0.972 0.792,-1.919 2.423,-1.919 0.492,0 0.971,0.06 1.415,0.145 v -0.192 c 0,-0.575 -0.396,-0.959 -1.043,-0.959 -0.456,0 -0.828,0.204 -1.067,0.588 l -1.175,-0.876 c 0,0 0.671,-1.199 2.327,-1.199 1.631,0 2.626,0.973 2.626,2.375 v 1.764 c 0,0.216 0.144,0.348 0.359,0.348 h 0.24 v 1.522 l -0.588,-0.002 0,0 z m -1.679,-2.327 c -0.313,-0.061 -0.696,-0.119 -0.923,-0.119 -0.685,0 -1.212,0.228 -1.212,0.707 0,0.323 0.24,0.54 0.685,0.54 0.706,0 1.234,-0.492 1.45,-1.128 z"
                 inkscape:connector-curvature="0"
                 style="fill:#ffffff" />
              <path
                 id="path4034"
                 d="m 288.107,27.276 v -2.087 h 1.68 v 2.087 h 0.827 v 1.559 h -0.827 v 4.294 h -1.68 v -4.294 h -0.814 v -1.559 h 0.814 z"
                 inkscape:connector-curvature="0"
                 style="fill:#ffffff" />
            </g>
          </g>
          <path
             id="path4036"
             d="m 297.388,29.666 c 0,4.244 3.439,7.685 7.684,7.685 h 3.152 c 4.242,0 7.685,-3.439 7.685,-7.685 0,-4.242 -3.441,-7.684 -7.685,-7.684 h -3.152 c -4.245,0 -7.684,3.442 -7.684,7.684 0,0 0,-4.242 0,0 z"
             inkscape:connector-curvature="0"
             style="fill:#ffffff" />
          <g
             id="g4038">
            <polygon
               id="polygon4040"
               points="344.185,67.79 347.226,72.011 341.18,72.024 "
               style="fill:#ffffff" />
            <path
               id="path4042"
               d="m 347.674,71.856 -3.041,-4.221 c -0.085,-0.117 -0.258,-0.19 -0.448,-0.19 h -10e-4 c -0.19,0.001 -0.364,0.075 -0.448,0.193 l -3.005,4.232 c -0.075,0.105 -0.065,0.234 0.025,0.334 0.092,0.102 0.252,0.162 0.424,0.162 10e-4,0 0.002,0 0.002,0 l 2.521,-0.004 v 1.254 c 0,2.832 -3.341,5.138 -7.443,5.138 h -16.353 c -0.276,0 -0.5,0.153 -0.5,0.346 0,0.188 0.224,0.345 0.5,0.345 h 16.353 c 4.655,0 8.443,-2.614 8.443,-5.827 v -1.257 l 2.522,-0.005 c 0.174,-10e-4 0.334,-0.063 0.424,-0.164 0.093,-0.101 0.101,-0.228 0.025,-0.336 z m -2.971,-0.185 v -0.366 c 0,-0.189 -0.226,-0.346 -0.5,-0.346 -0.277,0 -0.5,0.155 -0.5,0.346 v 0.368 l -1.722,0.005 2.205,-3.106 2.232,3.097 -1.715,0.002 z"
               inkscape:connector-curvature="0"
               style="fill:#ffffff" />
          </g>
        </g>
      </g>
    </g>
    <g
       id="g4174"
       transform="matrix(2.5,0,0,2.5,-211.83263,-7.4968686)">
      <g
         id="g4176">
        <path
           id="path4178"
           d="m 243.89,170.075 h 5.984 2.1 0.005 l 2.051,2.539 c 0.189,0.236 0.477,0.373 0.777,0.373 h 7.758 c 0.303,0 0.588,-0.137 0.777,-0.373 l 2.051,-2.539 h 0.005 29.983 8.137 21 6.873 17 4 17 c 2.762,0 5,-2.238 5,-5 v -12.166 c 0,-2.762 -2.238,-5 -5,-5 h -17 -4 -17 -6.873 -21 -8.137 -47.983 l -2.056,2.545 c -0.189,0.234 -0.476,0.371 -0.777,0.371 h -7.758 c -0.302,0 -0.588,-0.137 -0.777,-0.371 l -2.056,-2.545 h -8.084 c -2.718,0 -4.919,2.172 -4.987,4.875 h -0.013 v 0.125 12.166 32.084 9.438 2.729 c 0,2.762 2.239,5 5,5 h 8.089 l 2.051,2.539 c 0.189,0.236 0.477,0.373 0.777,0.373 h 7.757 c 0.304,0 0.588,-0.137 0.778,-0.373 l 2.051,-2.539 h 47.988 8.137 21 6.873 17 4 17 c 2.762,0 5,-2.238 5,-5 V 197.16 c 0,-2.477 -1.805,-4.518 -4.168,-4.916 h -17 -4 -17 -7.705 -21 -8.137 -29.988 l -2.051,2.539 c -0.189,0.234 -0.476,0.371 -0.777,0.371 h -7.758 c -0.302,0 -0.588,-0.137 -0.777,-0.371 l -2.051,-2.539 h -8.089 c -2.761,0 -5,-2.238 -5,-5 v -12.168 c 0,-2.763 2.239,-5.001 5,-5.001 z"
           inkscape:connector-curvature="0"
           style="fill:#f2af31" />
        <g
           id="g4180">
          <g
             id="g4182">
            <g
               id="g4184">
              <path
                 id="path4186"
                 d="m 243.819,162.472 h -1.679 v -5.854 h 1.679 v 0.396 c 0,0.131 -0.023,0.348 -0.06,0.575 0.336,-0.637 0.863,-1.116 1.631,-1.116 v 1.645 c -0.875,0 -1.571,0.504 -1.571,1.463 v 2.891 z"
                 inkscape:connector-curvature="0"
                 style="fill:#ffffff" />
              <path
                 id="path4188"
                 d="m 247.923,159.905 c 0.12,0.971 0.72,1.33 1.379,1.33 0.648,0 1.091,-0.299 1.379,-0.719 l 1.115,0.803 c -0.624,0.84 -1.259,1.271 -2.59,1.271 -1.715,0 -2.976,-1.26 -2.976,-3.059 0,-1.666 1.127,-3.045 2.927,-3.045 1.979,0 2.759,1.414 2.759,3.213 v 0.205 l -3.993,0.001 0,0 z m 0.048,-1.031 h 2.314 c -0.108,-0.672 -0.624,-1.02 -1.14,-1.02 -0.539,0 -1.006,0.336 -1.174,1.02 z"
                 inkscape:connector-curvature="0"
                 style="fill:#ffffff" />
              <path
                 id="path4190"
                 d="m 253.096,165.47 v -8.853 h 1.679 v 0.588 c 0.456,-0.479 1.056,-0.719 1.703,-0.719 1.619,0 2.542,1.475 2.542,3.033 0,1.584 -0.888,3.069 -2.531,3.069 -0.684,0 -1.318,-0.336 -1.774,-0.887 v 3.767 l -1.619,0.002 0,0 z m 4.258,-5.926 c 0,-0.862 -0.432,-1.559 -1.308,-1.559 -0.779,0 -1.295,0.647 -1.295,1.547 0,0.805 0.526,1.572 1.295,1.572 0.864,0 1.308,-0.708 1.308,-1.56 z"
                 inkscape:connector-curvature="0"
                 style="fill:#ffffff" />
              <path
                 id="path4192"
                 d="m 261.531,159.905 c 0.12,0.971 0.721,1.33 1.38,1.33 0.646,0 1.091,-0.299 1.379,-0.719 l 1.114,0.803 c -0.624,0.84 -1.259,1.271 -2.59,1.271 -1.715,0 -2.975,-1.26 -2.975,-3.059 0,-1.666 1.127,-3.045 2.926,-3.045 1.979,0 2.759,1.414 2.759,3.213 v 0.205 l -3.993,0.001 0,0 z m 0.048,-1.031 h 2.313 c -0.107,-0.672 -0.624,-1.02 -1.139,-1.02 -0.538,0 -1.006,0.336 -1.174,1.02 z"
                 inkscape:connector-curvature="0"
                 style="fill:#ffffff" />
              <path
                 id="path4194"
                 d="m 272.053,162.472 c -0.72,0 -1.211,-0.386 -1.475,-0.996 -0.336,0.563 -1.043,1.114 -2.087,1.114 -1.296,0 -1.955,-0.84 -1.955,-1.715 0,-0.971 0.792,-1.918 2.423,-1.918 0.492,0 0.971,0.06 1.415,0.144 v -0.191 c 0,-0.576 -0.396,-0.959 -1.043,-0.959 -0.456,0 -0.828,0.203 -1.067,0.588 l -1.175,-0.877 c 0,0 0.671,-1.199 2.327,-1.199 1.631,0 2.626,0.974 2.626,2.375 v 1.765 c 0,0.215 0.144,0.348 0.359,0.348 h 0.24 v 1.523 l -0.588,-0.002 0,0 z m -1.679,-2.328 c -0.313,-0.06 -0.696,-0.119 -0.923,-0.119 -0.685,0 -1.212,0.229 -1.212,0.707 0,0.324 0.24,0.541 0.685,0.541 0.706,-0.001 1.234,-0.493 1.45,-1.129 z"
                 inkscape:connector-curvature="0"
                 style="fill:#ffffff" />
              <path
                 id="path4196"
                 d="m 274.107,156.618 v -2.086 h 1.68 v 2.086 h 0.827 v 1.56 h -0.827 v 4.295 h -1.68 v -4.295 h -0.814 v -1.56 h 0.814 z"
                 inkscape:connector-curvature="0"
                 style="fill:#ffffff" />
              <path
                 id="path4198"
                 d="m 286.885,162.472 h -1.679 v -0.396 c 0,-0.096 0.012,-0.24 0.036,-0.408 -0.385,0.554 -0.984,0.947 -1.775,0.947 -1.211,0 -2.123,-0.947 -2.123,-2.518 v -3.479 h 1.691 v 3.383 c 0,0.814 0.516,1.234 1.08,1.234 0.503,0 1.055,-0.396 1.091,-1.188 v -3.43 h 1.679 v 5.855 l 0,0 z"
                 inkscape:connector-curvature="0"
                 style="fill:#ffffff" />
              <path
                 id="path4200"
                 d="m 290.103,162.472 h -1.679 v -5.854 h 1.679 v 0.396 c 0,0.096 -0.012,0.239 -0.036,0.407 0.385,-0.553 0.973,-0.948 1.775,-0.948 1.211,0 2.123,0.948 2.123,2.52 v 3.479 h -1.691 v -3.384 c 0,-0.813 -0.516,-1.233 -1.08,-1.233 -0.504,0 -1.066,0.406 -1.091,1.188 v 3.429 l 0,0 z"
                 inkscape:connector-curvature="0"
                 style="fill:#ffffff" />
              <path
                 id="path4202"
                 d="m 295.959,156.618 v -2.086 h 1.679 v 2.086 h 0.828 v 1.56 h -0.828 v 4.295 h -1.679 v -4.295 h -0.815 v -1.56 h 0.815 z"
                 inkscape:connector-curvature="0"
                 style="fill:#ffffff" />
              <path
                 id="path4204"
                 d="m 300.578,153.704 c 0.6,0 1.104,0.504 1.104,1.104 0,0.6 -0.504,1.104 -1.104,1.104 -0.601,0 -1.104,-0.504 -1.104,-1.104 0,-0.6 0.505,-1.104 1.104,-1.104 z m -0.875,8.768 v -5.854 h 1.715 v 5.854 h -1.715 z"
                 inkscape:connector-curvature="0"
                 style="fill:#ffffff" />
              <path
                 id="path4206"
                 d="m 303.051,162.472 v -8.996 h 1.703 v 8.996 h -1.703 z"
                 inkscape:connector-curvature="0"
                 style="fill:#ffffff" />
            </g>
          </g>
          <rect
             id="rect4208"
             height="14.779"
             width="57.215"
             y="151.618"
             x="309.05301"
             style="fill:#ffffff" />
          <g
             id="g4210">
            <polygon
               id="polygon4212"
               points="359.433,201.073 362.438,196.841 365.479,201.062 "
               style="fill:#ffffff" />
            <path
               id="path4214"
               d="m 365.927,200.907 -3.041,-4.221 c -0.085,-0.117 -0.258,-0.191 -0.448,-0.191 -10e-4,0 -10e-4,0 -10e-4,0 -0.19,0 -0.364,0.074 -0.448,0.193 l -3.005,4.231 c -0.074,0.107 -0.065,0.234 0.025,0.334 0.092,0.103 0.252,0.164 0.424,0.164 0.001,0 0.002,0 0.002,0 l 2.521,-0.006 v 1.254 c 0,2.832 -3.34,5.14 -7.443,5.14 H 338.16 c -0.276,0 -0.5,0.151 -0.5,0.344 0,0.191 0.224,0.346 0.5,0.346 h 16.353 c 4.655,0 8.443,-2.615 8.443,-5.828 v -1.256 l 2.522,-0.006 c 0.174,0 0.334,-0.063 0.424,-0.164 0.093,-0.101 0.101,-0.226 0.025,-0.334 z m -2.971,-0.185 v -0.367 c 0,-0.191 -0.226,-0.347 -0.5,-0.347 -0.277,0 -0.5,0.154 -0.5,0.347 v 0.367 l -1.722,0.004 2.205,-3.105 2.232,3.096 -1.715,0.005 z"
               inkscape:connector-curvature="0"
               style="fill:#ffffff" />
          </g>
        </g>
      </g>
    </g>
    <g
       id="g4481"
       transform="matrix(2.5,0,0,2.5,-511.54341,892.341)">
      <path
         id="path4483"
         d="m 373.39,18.804 h -20 -6 -20 -14.722 -8.334 -17.666 -43.271 l -2.056,2.545 c -0.19,0.233 -0.476,0.371 -0.778,0.371 h -7.757 c -0.302,0 -0.588,-0.138 -0.778,-0.371 l -2.056,-2.545 h -8.083 c -2.761,0 -5,2.237 -5,5 V 35.97 c 0,2.762 2.239,5 5,5 h 8.088 l 2.051,2.539 c 0.19,0.235 0.477,0.372 0.778,0.372 h 7.757 c 0.303,0 0.588,-0.137 0.778,-0.372 l 2.051,-2.539 h 43.274 17.666 8.334 14.722 20 6 20 c 2.762,0 5,-2.238 5,-5 V 23.804 c 0.002,-2.762 -2.237,-5 -4.998,-5 z"
         inkscape:connector-curvature="0"
         style="fill:#5a4495" />
      <g
         id="g4485">
        <g
           id="g4487">
          <g
             id="g4489">
            <path
               id="path4491"
               d="m 226.454,31.607 c 0.407,0.468 1.055,0.659 1.618,0.659 0.36,0 0.624,-0.145 0.624,-0.359 0,-0.3 -0.3,-0.443 -0.792,-0.588 -0.911,-0.264 -2.038,-0.768 -2.038,-1.955 0,-1.127 1.091,-1.763 2.074,-1.763 0.889,0 1.512,0.3 2.039,0.852 l -0.936,1.008 c -0.252,-0.275 -0.721,-0.527 -1.067,-0.527 -0.312,0 -0.54,0.145 -0.54,0.372 0,0.288 0.335,0.432 0.863,0.588 0.888,0.264 2.027,0.814 2.027,1.931 0,1.104 -0.947,1.871 -2.268,1.871 -1.056,0 -1.919,-0.3 -2.555,-0.983 l 0.951,-1.106 z"
               inkscape:connector-curvature="0"
               style="fill:#ffffff" />
            <path
               id="path4493"
               d="m 236.854,33.574 c -0.72,0 -1.211,-0.384 -1.475,-0.995 -0.336,0.563 -1.043,1.115 -2.087,1.115 -1.295,0 -1.955,-0.84 -1.955,-1.715 0,-0.973 0.792,-1.919 2.423,-1.919 0.492,0 0.971,0.06 1.415,0.144 v -0.191 c 0,-0.575 -0.396,-0.959 -1.043,-0.959 -0.456,0 -0.828,0.203 -1.067,0.588 l -1.175,-0.876 c 0,0 0.671,-1.199 2.327,-1.199 1.631,0 2.626,0.972 2.626,2.375 v 1.763 c 0,0.216 0.144,0.349 0.36,0.349 h 0.239 v 1.522 l -0.588,-0.002 0,0 z m -1.679,-2.327 c -0.313,-0.06 -0.696,-0.119 -0.923,-0.119 -0.685,0 -1.211,0.229 -1.211,0.707 0,0.324 0.239,0.54 0.684,0.54 0.707,0 1.234,-0.492 1.45,-1.128 z"
               inkscape:connector-curvature="0"
               style="fill:#ffffff" />
            <path
               id="path4495"
               d="m 239.988,32.927 -2.183,-5.205 h 1.763 l 1.127,2.733 c 0.097,0.24 0.181,0.563 0.192,0.601 0,-0.024 0.108,-0.349 0.216,-0.601 l 1.175,-2.733 h 1.775 l -4.042,9.127 h -1.751 l 1.728,-3.922 z"
               inkscape:connector-curvature="0"
               style="fill:#ffffff" />
          </g>
        </g>
        <g
           id="g4497">
          <g
             id="g4499">
            <path
               id="path4501"
               d="m 305.881,29.209 v 4.365 h -1.703 v -4.365 h -0.84 v -1.486 h 0.84 v -1.057 c 0,-1.415 0.995,-2.229 2.158,-2.229 0.408,0 0.768,0.07 1.067,0.203 l -0.553,1.428 c -0.106,-0.061 -0.239,-0.096 -0.371,-0.096 -0.384,0 -0.6,0.3 -0.6,0.814 v 0.937 h 1.233 v 1.486 h -1.231 z"
               inkscape:connector-curvature="0"
               style="fill:#ffffff" />
            <path
               id="path4503"
               d="m 307.934,30.636 c 0,-1.739 1.344,-3.047 3.06,-3.047 1.715,0 3.059,1.308 3.059,3.047 0,1.738 -1.344,3.047 -3.059,3.047 -1.716,0 -3.06,-1.308 -3.06,-3.047 z m 4.473,0 c 0,-0.889 -0.563,-1.548 -1.415,-1.548 -0.863,0 -1.429,0.659 -1.429,1.548 0,0.898 0.588,1.56 1.429,1.56 0.852,-10e-4 1.415,-0.661 1.415,-1.56 z"
               inkscape:connector-curvature="0"
               style="fill:#ffffff" />
            <path
               id="path4505"
               d="m 316.908,33.574 h -1.68 v -5.853 h 1.68 v 0.396 c 0,0.132 -0.023,0.348 -0.061,0.576 0.336,-0.636 0.863,-1.116 1.631,-1.116 v 1.645 c -0.876,0 -1.57,0.504 -1.57,1.463 v 2.889 z"
               inkscape:connector-curvature="0"
               style="fill:#ffffff" />
          </g>
        </g>
        <g
           id="g4507">
          <g
             id="g4509">
            <path
               id="path4511"
               d="m 347.453,31.607 c 0.407,0.468 1.056,0.659 1.618,0.659 0.359,0 0.624,-0.145 0.624,-0.359 0,-0.3 -0.3,-0.443 -0.792,-0.588 -0.91,-0.264 -2.039,-0.768 -2.039,-1.955 0,-1.127 1.093,-1.763 2.075,-1.763 0.889,0 1.512,0.3 2.039,0.852 l -0.936,1.008 c -0.252,-0.275 -0.721,-0.527 -1.067,-0.527 -0.313,0 -0.539,0.145 -0.539,0.372 0,0.288 0.335,0.432 0.863,0.588 0.887,0.264 2.026,0.814 2.026,1.931 0,1.104 -0.947,1.871 -2.268,1.871 -1.056,0 -1.919,-0.3 -2.555,-0.983 l 0.951,-1.106 z"
               inkscape:connector-curvature="0"
               style="fill:#ffffff" />
            <path
               id="path4513"
               d="m 353.836,31.008 c 0.121,0.973 0.721,1.331 1.38,1.331 0.646,0 1.091,-0.3 1.38,-0.72 l 1.115,0.804 c -0.624,0.841 -1.26,1.271 -2.591,1.271 -1.717,0 -2.976,-1.26 -2.976,-3.059 0,-1.667 1.128,-3.047 2.927,-3.047 1.979,0 2.759,1.415 2.759,3.215 v 0.203 l -3.994,0.002 0,0 z m 0.049,-1.031 h 2.314 c -0.107,-0.672 -0.623,-1.021 -1.14,-1.021 -0.538,0.001 -1.006,0.337 -1.174,1.021 z"
               inkscape:connector-curvature="0"
               style="fill:#ffffff" />
            <path
               id="path4515"
               d="m 362.823,29.7 c -0.3,-0.323 -0.563,-0.552 -1.044,-0.552 -0.778,0 -1.331,0.624 -1.331,1.487 0,0.898 0.553,1.463 1.331,1.463 0.48,0 0.841,-0.265 1.093,-0.623 l 1.26,0.959 c -0.601,0.814 -1.32,1.248 -2.353,1.248 -1.763,0 -3.01,-1.345 -3.01,-3.047 0,-1.703 1.247,-3.047 2.998,-3.047 0.924,0 1.655,0.396 2.219,1.031 l -1.163,1.081 z"
               inkscape:connector-curvature="0"
               style="fill:#ffffff" />
            <path
               id="path4517"
               d="m 365.896,31.607 c 0.408,0.468 1.057,0.659 1.619,0.659 0.359,0 0.624,-0.145 0.624,-0.359 0,-0.3 -0.3,-0.443 -0.792,-0.588 -0.911,-0.264 -2.039,-0.768 -2.039,-1.955 0,-1.127 1.092,-1.763 2.075,-1.763 0.888,0 1.511,0.3 2.039,0.852 l -0.937,1.008 c -0.252,-0.275 -0.72,-0.527 -1.066,-0.527 -0.313,0 -0.539,0.145 -0.539,0.372 0,0.288 0.335,0.432 0.863,0.588 0.887,0.264 2.025,0.814 2.025,1.931 0,1.104 -0.947,1.871 -2.267,1.871 -1.057,0 -1.919,-0.3 -2.556,-0.983 l 0.951,-1.106 z"
               inkscape:connector-curvature="0"
               style="fill:#ffffff" />
          </g>
        </g>
        <path
           id="path4519"
           d="m 322.954,29.759 c 0,4.244 3.438,7.685 7.684,7.685 h 3.152 c 4.242,0 7.684,-3.439 7.684,-7.685 0,-4.241 -3.44,-7.684 -7.684,-7.684 h -3.152 c -4.244,0 -7.684,3.442 -7.684,7.684 0,0 0,-4.242 0,0 z"
           inkscape:connector-curvature="0"
           style="fill:#ffffff" />
        <rect
           id="rect4521"
           height="14.779"
           width="50"
           y="22.368"
           x="249.15601"
           style="fill:#ffffff" />
      </g>
    </g>
    <g
       id="g5538"
       transform="matrix(2.5,0,0,2.5,-482.43404,746.53402)">
      <path
         id="path5540"
         d="m 395.803,37.126 h -0.589 -6.133 -0.278 -0.589 -6.133 -6.278 -0.589 -5.801 -0.332 -0.278 -0.589 -6.133 -0.278 -0.589 -6.133 -4.873 -0.208 -0.587 -0.61 -0.589 -6.133 -0.278 -0.589 -6.133 -4.873 -7.795 -11.61 -0.589 -6.133 -0.278 -0.589 -0.006 -6.127 -12.668 -52.603 l -2.056,2.545 c -0.19,0.235 -0.477,0.372 -0.778,0.372 h -7.757 c -0.303,0 -0.588,-0.137 -0.778,-0.372 l -2.056,-2.545 h -8.083 c -2.762,0 -5,2.238 -5,5 v 12.167 c 0,2.763 2.238,4.999 5,4.999 h 8.088 l 2.051,2.539 c 0.19,0.236 0.477,0.373 0.778,0.373 h 7.757 c 0.303,0 0.588,-0.137 0.778,-0.373 l 2.051,-2.539 h 52.606 12.668 6.127 0.006 0.589 0.278 6.133 0.589 11.61 7.795 4.873 6.133 0.589 0.278 6.133 0.589 0.61 0.589 0.208 4.873 6.133 0.589 0.278 6.133 0.589 0.278 0.332 5.801 0.589 6.278 6.133 0.589 0.278 6.133 0.589 c 2.762,0 5,-2.236 5,-4.999 V 42.126 c 0,-2.762 -2.239,-5 -5,-5 z"
         inkscape:connector-curvature="0"
         style="fill:#9a4794" />
      <g
         id="g5542">
        <g
           id="g5544">
          <g
             id="g5546">
            <path
               id="path5548"
               d="m 212.468,54.896 v -8.852 h 1.679 v 0.588 c 0.456,-0.479 1.056,-0.72 1.703,-0.72 1.619,0 2.542,1.476 2.542,3.034 0,1.583 -0.888,3.07 -2.531,3.07 -0.684,0 -1.318,-0.336 -1.774,-0.889 v 3.767 l -1.619,0.002 0,0 z m 4.258,-5.925 c 0,-0.863 -0.432,-1.56 -1.308,-1.56 -0.779,0 -1.295,0.647 -1.295,1.547 0,0.805 0.526,1.571 1.295,1.571 0.864,10e-4 1.308,-0.707 1.308,-1.558 z"
               inkscape:connector-curvature="0"
               style="fill:#ffffff" />
            <path
               id="path5550"
               d="m 219.572,51.897 v -8.995 h 1.703 v 8.995 h -1.703 z"
               inkscape:connector-curvature="0"
               style="fill:#ffffff" />
            <path
               id="path5552"
               d="m 228.161,51.897 c -0.721,0 -1.211,-0.384 -1.476,-0.995 -0.336,0.563 -1.043,1.115 -2.087,1.115 -1.295,0 -1.955,-0.84 -1.955,-1.715 0,-0.973 0.792,-1.92 2.423,-1.92 0.492,0 0.972,0.061 1.415,0.145 v -0.192 c 0,-0.574 -0.396,-0.959 -1.043,-0.959 -0.456,0 -0.828,0.204 -1.066,0.588 l -1.176,-0.876 c 0,0 0.672,-1.198 2.327,-1.198 1.631,0 2.626,0.972 2.626,2.375 v 1.763 c 0,0.216 0.145,0.348 0.36,0.348 h 0.24 v 1.523 l -0.588,-0.002 0,0 z m -1.679,-2.327 c -0.312,-0.06 -0.695,-0.119 -0.923,-0.119 -0.684,0 -1.211,0.229 -1.211,0.707 0,0.324 0.24,0.54 0.685,0.54 0.705,0 1.233,-0.492 1.449,-1.128 z"
               inkscape:connector-curvature="0"
               style="fill:#ffffff" />
            <path
               id="path5554"
               d="m 231.295,51.25 -2.184,-5.205 h 1.764 l 1.127,2.734 c 0.096,0.24 0.18,0.563 0.191,0.6 0,-0.023 0.108,-0.348 0.217,-0.6 l 1.175,-2.734 h 1.774 l -4.042,9.127 h -1.751 l 1.729,-3.922 z"
               inkscape:connector-curvature="0"
               style="fill:#ffffff" />
            <path
               id="path5556"
               d="m 240.344,49.931 c 0.408,0.468 1.055,0.658 1.619,0.658 0.358,0 0.624,-0.144 0.624,-0.358 0,-0.3 -0.3,-0.443 -0.792,-0.588 -0.912,-0.265 -2.039,-0.769 -2.039,-1.955 0,-1.127 1.091,-1.764 2.075,-1.764 0.888,0 1.511,0.301 2.039,0.853 l -0.937,1.008 c -0.252,-0.276 -0.72,-0.528 -1.066,-0.528 -0.313,0 -0.54,0.146 -0.54,0.372 0,0.288 0.335,0.433 0.862,0.588 0.889,0.265 2.027,0.815 2.027,1.932 0,1.104 -0.947,1.871 -2.267,1.871 -1.057,0 -1.92,-0.3 -2.556,-0.983 l 0.951,-1.106 z"
               inkscape:connector-curvature="0"
               style="fill:#ffffff" />
            <path
               id="path5558"
               d="m 245.036,48.959 c 0,-1.738 1.343,-3.046 3.059,-3.046 1.715,0 3.058,1.308 3.058,3.046 0,1.739 -1.343,3.047 -3.058,3.047 -1.716,0 -3.059,-1.308 -3.059,-3.047 z m 4.473,0 c 0,-0.888 -0.564,-1.547 -1.415,-1.547 -0.864,0 -1.427,0.659 -1.427,1.547 0,0.899 0.587,1.561 1.427,1.561 0.851,-0.001 1.415,-0.662 1.415,-1.561 z"
               inkscape:connector-curvature="0"
               style="fill:#ffffff" />
            <path
               id="path5560"
               d="m 257.825,51.897 h -1.68 v -0.396 c 0,-0.097 0.013,-0.239 0.036,-0.407 -0.384,0.552 -0.983,0.946 -1.774,0.946 -1.212,0 -2.123,-0.946 -2.123,-2.519 v -3.479 h 1.69 v 3.382 c 0,0.815 0.517,1.235 1.08,1.235 0.503,0 1.055,-0.396 1.091,-1.188 V 46.04 h 1.68 v 5.857 z"
               inkscape:connector-curvature="0"
               style="fill:#ffffff" />
            <path
               id="path5562"
               d="m 261.042,51.897 h -1.68 v -5.854 h 1.68 v 0.396 c 0,0.096 -0.013,0.24 -0.036,0.408 0.384,-0.553 0.972,-0.948 1.774,-0.948 1.212,0 2.123,0.948 2.123,2.519 v 3.479 h -1.69 v -3.382 c 0,-0.815 -0.517,-1.235 -1.08,-1.235 -0.504,0 -1.067,0.407 -1.091,1.188 v 3.429 l 0,0 z"
               inkscape:connector-curvature="0"
               style="fill:#ffffff" />
            <path
               id="path5564"
               d="M 270.401,51.897 V 51.13 c -0.468,0.553 -1.092,0.889 -1.774,0.889 -1.644,0 -2.53,-1.487 -2.53,-3.07 0,-1.56 0.923,-3.034 2.542,-3.034 0.647,0 1.247,0.239 1.703,0.721 v -3.73 h 1.679 v 8.995 h -1.619 v -0.004 z m -0.036,-2.938 c 0,-0.898 -0.516,-1.547 -1.295,-1.547 -0.875,0 -1.307,0.695 -1.307,1.56 0,0.852 0.444,1.56 1.307,1.56 0.767,-0.002 1.295,-0.769 1.295,-1.573 z"
               inkscape:connector-curvature="0"
               style="fill:#ffffff" />
          </g>
        </g>
        <g
           id="g5566">
          <g
             id="g5568">
            <path
               id="path5570"
               d="m 344.961,51.897 h -1.679 v -0.396 c 0,-0.097 0.012,-0.239 0.035,-0.407 -0.384,0.552 -0.983,0.946 -1.774,0.946 -1.211,0 -2.123,-0.946 -2.123,-2.519 v -3.479 h 1.69 v 3.382 c 0,0.815 0.517,1.235 1.08,1.235 0.503,0 1.056,-0.396 1.092,-1.188 V 46.04 h 1.679 v 5.857 l 0,0 z"
               inkscape:connector-curvature="0"
               style="fill:#ffffff" />
            <path
               id="path5572"
               d="m 348.18,51.897 h -1.68 v -5.854 h 1.68 v 0.396 c 0,0.096 -0.013,0.24 -0.037,0.408 0.385,-0.553 0.974,-0.948 1.775,-0.948 1.211,0 2.123,0.948 2.123,2.519 v 3.479 h -1.691 v -3.382 c 0,-0.815 -0.516,-1.235 -1.079,-1.235 -0.504,0 -1.066,0.407 -1.091,1.188 v 3.429 l 0,0 z"
               inkscape:connector-curvature="0"
               style="fill:#ffffff" />
            <path
               id="path5574"
               d="m 354.035,46.045 v -2.087 h 1.68 v 2.087 h 0.828 v 1.56 h -0.828 v 4.294 h -1.68 v -4.294 h -0.814 v -1.56 h 0.814 z"
               inkscape:connector-curvature="0"
               style="fill:#ffffff" />
            <path
               id="path5576"
               d="m 358.655,43.13 c 0.601,0 1.104,0.505 1.104,1.104 0,0.599 -0.504,1.104 -1.104,1.104 -0.6,0 -1.104,-0.504 -1.104,-1.104 0,-0.6 0.505,-1.104 1.104,-1.104 z m -0.876,8.767 v -5.854 h 1.716 v 5.854 h -1.716 z"
               inkscape:connector-curvature="0"
               style="fill:#ffffff" />
            <path
               id="path5578"
               d="m 361.128,51.897 v -8.995 h 1.703 v 8.995 h -1.703 z"
               inkscape:connector-curvature="0"
               style="fill:#ffffff" />
            <path
               id="path5580"
               d="M 371.926,51.897 V 51.13 c -0.468,0.553 -1.092,0.889 -1.775,0.889 -1.643,0 -2.529,-1.487 -2.529,-3.07 0,-1.56 0.923,-3.034 2.542,-3.034 0.647,0 1.248,0.239 1.703,0.721 v -3.73 h 1.68 v 8.995 h -1.62 v -0.004 z m -0.036,-2.938 c 0,-0.898 -0.516,-1.547 -1.296,-1.547 -0.875,0 -1.307,0.695 -1.307,1.56 0,0.852 0.442,1.56 1.307,1.56 0.767,-0.002 1.296,-0.769 1.296,-1.573 z"
               inkscape:connector-curvature="0"
               style="fill:#ffffff" />
            <path
               id="path5582"
               d="m 374.724,48.959 c 0,-1.738 1.343,-3.046 3.06,-3.046 1.715,0 3.058,1.308 3.058,3.046 0,1.739 -1.343,3.047 -3.058,3.047 -1.718,0 -3.06,-1.308 -3.06,-3.047 z m 4.473,0 c 0,-0.888 -0.563,-1.547 -1.415,-1.547 -0.863,0 -1.427,0.659 -1.427,1.547 0,0.899 0.587,1.561 1.427,1.561 0.852,-0.001 1.415,-0.662 1.415,-1.561 z"
               inkscape:connector-curvature="0"
               style="fill:#ffffff" />
            <path
               id="path5584"
               d="m 383.699,51.897 h -1.681 v -5.854 h 1.681 v 0.396 c 0,0.096 -0.014,0.24 -0.037,0.408 0.385,-0.553 0.973,-0.948 1.774,-0.948 1.211,0 2.123,0.948 2.123,2.519 v 3.479 h -1.69 v -3.382 c 0,-0.815 -0.517,-1.235 -1.079,-1.235 -0.504,0 -1.067,0.407 -1.092,1.188 l 0.001,3.429 0,0 z"
               inkscape:connector-curvature="0"
               style="fill:#ffffff" />
            <path
               id="path5586"
               d="m 390.431,49.331 c 0.12,0.973 0.72,1.331 1.38,1.331 0.647,0 1.091,-0.3 1.379,-0.72 l 1.115,0.804 c -0.623,0.84 -1.26,1.271 -2.59,1.271 -1.716,0 -2.976,-1.261 -2.976,-3.06 0,-1.667 1.128,-3.046 2.927,-3.046 1.979,0 2.759,1.415 2.759,3.214 v 0.204 l -3.994,0.002 0,0 z m 0.048,-1.031 h 2.314 c -0.107,-0.672 -0.623,-1.02 -1.14,-1.02 -0.539,0 -1.007,0.336 -1.174,1.02 z"
               inkscape:connector-curvature="0"
               style="fill:#ffffff" />
          </g>
        </g>
        <rect
           id="rect5588"
           height="14.779"
           width="57.312"
           y="41.025002"
           x="277.09601"
           style="fill:#ffffff" />
      </g>
    </g>
    <g
       id="g5820"
       transform="matrix(2.5,0,0,2.5,-531.65157,558.20333)">
      <path
         id="path5822"
         d="m 361.89,74.744 h -0.589 -6.133 -0.278 -0.589 -4.714 -1.419 -2.668 -3.61 -0.589 -5.801 -0.332 -0.278 -0.589 -0.411 -0.589 -5.133 -0.278 -0.589 -0.133 -0.278 -0.589 -0.006 -5.127 -1 -3.873 -0.208 -0.587 -0.61 -0.589 -1.714 -5.087 -52.603 l -2.056,2.545 c -0.19,0.235 -0.476,0.372 -0.778,0.372 h -7.757 c -0.303,0 -0.588,-0.137 -0.778,-0.372 l -2.056,-2.545 h -8.083 c -2.762,0 -5,2.238 -5,5 v 12.167 c 0,2.762 2.238,4.999 5,4.999 h 8.088 l 2.051,2.539 c 0.19,0.236 0.477,0.373 0.778,0.373 h 7.757 c 0.304,0 0.588,-0.137 0.778,-0.373 l 2.051,-2.539 h 52.608 5.087 1.714 0.589 0.61 0.587 0.208 3.873 1 5.127 0.006 0.589 0.278 0.133 0.589 0.278 5.133 0.589 0.411 0.589 0.278 0.332 5.801 0.589 3.61 2.668 1.419 4.714 0.589 0.278 6.133 0.589 c 2.762,0 5,-2.237 5,-4.999 V 79.744 c 0,-2.762 -2.239,-5 -5,-5 z"
         inkscape:connector-curvature="0"
         style="fill:#9a4794" />
      <g
         id="g5824">
        <g
           id="g5826">
          <g
             id="g5828">
            <path
               id="path5830"
               d="m 237.055,92.513 v -8.852 h 1.679 v 0.588 c 0.456,-0.479 1.056,-0.72 1.703,-0.72 1.619,0 2.542,1.475 2.542,3.034 0,1.583 -0.888,3.069 -2.531,3.069 -0.684,0 -1.318,-0.336 -1.774,-0.888 v 3.767 l -1.619,0.002 0,0 z m 4.258,-5.925 c 0,-0.862 -0.432,-1.559 -1.308,-1.559 -0.779,0 -1.295,0.646 -1.295,1.547 0,0.804 0.526,1.571 1.295,1.571 0.864,0 1.308,-0.708 1.308,-1.559 z"
               inkscape:connector-curvature="0"
               style="fill:#ffffff" />
            <path
               id="path5832"
               d="M 244.159,89.515 V 80.52 h 1.702 v 8.995 h -1.702 z"
               inkscape:connector-curvature="0"
               style="fill:#ffffff" />
            <path
               id="path5834"
               d="m 252.748,89.515 c -0.721,0 -1.211,-0.385 -1.476,-0.995 -0.336,0.563 -1.043,1.115 -2.087,1.115 -1.295,0 -1.955,-0.841 -1.955,-1.716 0,-0.972 0.792,-1.919 2.423,-1.919 0.492,0 0.972,0.061 1.415,0.145 v -0.192 c 0,-0.575 -0.396,-0.959 -1.043,-0.959 -0.456,0 -0.828,0.204 -1.066,0.588 l -1.175,-0.876 c 0,0 0.671,-1.199 2.326,-1.199 1.632,0 2.626,0.973 2.626,2.375 v 1.764 c 0,0.216 0.145,0.348 0.36,0.348 h 0.24 v 1.523 l -0.588,-0.002 0,0 z m -1.679,-2.327 c -0.312,-0.061 -0.695,-0.119 -0.923,-0.119 -0.684,0 -1.211,0.228 -1.211,0.707 0,0.324 0.24,0.54 0.685,0.54 0.705,-0.001 1.233,-0.493 1.449,-1.128 z"
               inkscape:connector-curvature="0"
               style="fill:#ffffff" />
            <path
               id="path5836"
               d="m 255.882,88.867 -2.183,-5.205 h 1.763 l 1.127,2.734 c 0.096,0.24 0.18,0.563 0.191,0.6 0,-0.023 0.108,-0.348 0.217,-0.6 l 1.175,-2.734 h 1.774 l -4.042,9.127 h -1.751 l 1.729,-3.922 z"
               inkscape:connector-curvature="0"
               style="fill:#ffffff" />
            <path
               id="path5838"
               d="m 264.931,87.548 c 0.408,0.469 1.055,0.659 1.619,0.659 0.359,0 0.624,-0.144 0.624,-0.358 0,-0.301 -0.3,-0.443 -0.792,-0.588 -0.912,-0.265 -2.039,-0.769 -2.039,-1.955 0,-1.127 1.091,-1.764 2.075,-1.764 0.888,0 1.511,0.3 2.039,0.853 l -0.937,1.008 c -0.252,-0.276 -0.72,-0.528 -1.066,-0.528 -0.313,0 -0.54,0.146 -0.54,0.372 0,0.288 0.335,0.433 0.862,0.588 0.889,0.265 2.027,0.815 2.027,1.932 0,1.104 -0.947,1.871 -2.267,1.871 -1.057,0 -1.919,-0.301 -2.556,-0.983 l 0.951,-1.107 z"
               inkscape:connector-curvature="0"
               style="fill:#ffffff" />
            <path
               id="path5840"
               d="m 269.623,86.576 c 0,-1.739 1.343,-3.046 3.059,-3.046 1.715,0 3.058,1.307 3.058,3.046 0,1.739 -1.343,3.047 -3.058,3.047 -1.716,0 -3.059,-1.308 -3.059,-3.047 z m 4.473,0 c 0,-0.888 -0.563,-1.547 -1.415,-1.547 -0.864,0 -1.427,0.659 -1.427,1.547 0,0.899 0.587,1.561 1.427,1.561 0.851,-0.001 1.415,-0.661 1.415,-1.561 z"
               inkscape:connector-curvature="0"
               style="fill:#ffffff" />
            <path
               id="path5842"
               d="m 282.412,89.515 h -1.68 v -0.396 c 0,-0.097 0.013,-0.24 0.036,-0.408 -0.384,0.553 -0.983,0.947 -1.774,0.947 -1.211,0 -2.123,-0.947 -2.123,-2.519 V 83.66 h 1.69 v 3.382 c 0,0.815 0.517,1.235 1.08,1.235 0.503,0 1.055,-0.396 1.091,-1.188 v -3.43 h 1.68 v 5.856 l 0,0 z"
               inkscape:connector-curvature="0"
               style="fill:#ffffff" />
            <path
               id="path5844"
               d="m 285.629,89.515 h -1.679 v -5.854 h 1.679 v 0.396 c 0,0.096 -0.012,0.239 -0.036,0.407 0.384,-0.552 0.972,-0.947 1.775,-0.947 1.211,0 2.122,0.947 2.122,2.519 v 3.479 h -1.69 v -3.383 c 0,-0.814 -0.516,-1.234 -1.08,-1.234 -0.504,0 -1.067,0.407 -1.091,1.188 v 3.429 z"
               inkscape:connector-curvature="0"
               style="fill:#ffffff" />
            <path
               id="path5846"
               d="m 294.988,89.515 v -0.769 c -0.468,0.552 -1.092,0.889 -1.774,0.889 -1.644,0 -2.53,-1.487 -2.53,-3.07 0,-1.561 0.923,-3.034 2.542,-3.034 0.647,0 1.247,0.239 1.703,0.72 v -3.729 h 1.679 v 8.995 l -1.62,-0.002 0,0 z m -0.036,-2.939 c 0,-0.898 -0.517,-1.547 -1.296,-1.547 -0.875,0 -1.307,0.695 -1.307,1.559 0,0.853 0.444,1.561 1.307,1.561 0.768,-0.002 1.296,-0.769 1.296,-1.573 z"
               inkscape:connector-curvature="0"
               style="fill:#ffffff" />
          </g>
        </g>
        <rect
           id="rect5848"
           height="14.778"
           width="57.312"
           y="78.643997"
           x="301.68301"
           style="fill:#ffffff" />
      </g>
    </g>
  </g>
</svg>
